<svg xmlns="http://www.w3.org/2000/svg" width="976.751" height="846.88" viewBox="0 0 976.751 846.88">
  <path id="Tracé_2937" data-name="Tracé 2937" d="M756.8,760.094l-1.3-130.909a6.067,6.067,0,0,0,3.153-5.268,5.979,5.979,0,0,0-2.73-4.968,4.78,4.78,0,0,1,3.862-1.856l.164-5.746c-.2,0-4.326-.546-5.118-8.6h13.566l-.15-17.742h9.076l9.294-29.083-7.206-.082,7.206-17.565H697.342V475.84l9.69-18.233-.109-16.869,6.605-10.127-.218-8.421H696.086l-3.385-5.5c-.45-146.986-121.765-206.38-136.054-212.863l-8.789-12.883,3.112-6.442h5.009l5.077-10.55-7.165-6.305-2.034-5.746h-18.3l4.231-15.94h-9.2l-1.406-2.006L526.8,105.4a3.719,3.719,0,0,0,.942-2.429,3.811,3.811,0,0,0-1.61-3.071l.014-1.433h1.078l5.063-10.536h-6.824L537.787,61.51h-8.912c-1.392-24.5-19.857-36.03-25.589-39.005v-.328h.846l-5.459-11.287A12.08,12.08,0,0,0,491.6.2L490.539,0H485.2l-1.092.2a12.026,12.026,0,0,0-7.083,10.932l-5.336,11.041h.969v.355c-5.787,3.016-24.156,14.535-25.535,38.978H438.65l12.187,26.422h-6.756l5.1,10.536h1.392l-.109,1.924a3.9,3.9,0,0,0-.969,2.511,3.8,3.8,0,0,0,.914,2.416l-.368,38.582-1.365,2.061H438.65l4.108,15.94h-17.5l-2.17,5.746-8.038,6.305,5.077,10.55h5.009l3.084,6.442-7.984,12.679c-11.9,5.323-136.026,64.349-136.518,213l-3.576,5.568H264.6l-.328,8.434,7.315,10.181-.259,16.8,7.534,18.233v62.438H189.525l7.274,17.565h-7.274l9.663,29.165h8.844l-.273,17.742h13.061c-.819,7.943-4.9,8.475-5.022,8.475l.082,5.746a4.879,4.879,0,0,1,4.367,2.539,6,6,0,0,0,1.406,9.54l-1.283,130.909L0,846.88H53.117l435.2-171.7,435.252,171.7h53.185ZM495.82,44.7c4.354.082,15.04,14.194,15.626,24.252l.055,1.146H498.372l-.027-1.065a91.244,91.244,0,0,0-2.907-19.953c-.259-1.092-.491-2.1-.7-3.057l-.287-1.337ZM509.427,91.48v1.105l-.409,52.885h-8.775v-1.105l.382-52.885Zm-45.46-22.532c.56-9.731,10.7-24.184,15.6-24.184h1.351l-.287,1.324q-.287,1.372-.655,2.948a94.321,94.321,0,0,0-2.811,19.98l-.014,1.078H463.912ZM476.209,91.48v1.105l-.4,52.885h-8.775v-1.105l.382-52.885Zm45,75.24-1.993,13.934H457.47l-1.993-13.934Zm-78.3,24.47h90.7l7.725,13.934H435.375ZM308.7,409.089c1.447-129.612,116.21-180.709,121.069-182.8h20.4s-13.184,6.087-17.333,8.516S322.249,295.09,325.2,399.891h56.624c.9-110.055,68.02-167.266,68.7-167.839l6.728-5.677h10.454l-5.909,8.3c-12.5,12.146-65.072,72.906-65.072,165.219h47.508c.3-85.844,17.674-146.74,26.845-167.007l2.866-6.51h12.8l-2.156,7.82c-1.037,3.03-24.7,73.547-25.071,165.7h57.716c-.369-92.149-24.047-162.667-25.071-165.7l-2.156-7.82h12.8l2.866,6.51c9.171,20.267,26.545,81.163,26.845,167.007h47.494c0-92.313-52.557-153.072-65.058-165.219l-5.909-8.3H519.5l6.728,5.677c.682.573,67.8,57.784,68.7,167.839h56.624c2.948-104.8-103.49-162.653-107.639-165.082s-17.346-8.516-17.346-8.516h20.417c4.859,2.088,119.622,53.185,121.069,182.8l.055,4.722H308.642Zm-16.009,26H685.755V449H292.688Zm376.717,45.5v57.62h-11.7v-57.62c0-2.811,1.419-12.733,5.855-12.733C667.89,467.856,669.378,477.341,669.405,480.589Zm-45.952,0v57.62H603.964V480.617c.027-.519.232-12.761,8.9-12.761C623.017,467.856,623.44,479.32,623.453,480.589Zm-53.745,0v57.62H540.243V480.63c.041-2.989,1.174-12.774,13.634-12.774C568.33,467.856,569.641,477.655,569.709,480.589Zm-67.024,0v57.62H473.943V480.63c.055-2.989,1.256-12.774,14.371-12.774S502.63,477.642,502.685,480.589Zm-66.751.027V538.21H407.192V480.63c.055-2.989,1.256-12.774,14.371-12.774S435.866,477.6,435.934,480.617ZM372.8,480.6V538.21H353.311V480.617c.014-1.31.409-12.761,9.744-12.761C372.35,467.856,372.773,479.225,372.8,480.6Zm-53.881,0V538.21h-11.7v-57.62c0-2.811,1.406-12.733,5.855-12.733C317.418,467.856,318.905,477.341,318.919,480.6ZM284.145,734.791l-32.973,12.993-.942-118.735a6.347,6.347,0,0,0,.368-10.236,4.044,4.044,0,0,1,3.412-1.842l.136-5.746c-.191,0-3.78-.532-4.5-8.475h34.611c-.737,7.943-4.326,8.475-4.422,8.475l.055,5.746a4.265,4.265,0,0,1,3.849,2.539,6.6,6.6,0,0,0-1.542,4.285,6.185,6.185,0,0,0,2.8,5.268Zm63.148-24.921-32.986,13.006-.928-93.828a6.337,6.337,0,0,0,.355-10.236,4.088,4.088,0,0,1,3.426-1.842l.123-5.746c-.177,0-3.767-.532-4.49-8.475h34.6c-.723,7.943-4.313,8.475-4.422,8.475l.068,5.746a4.282,4.282,0,0,1,3.849,2.539,6.533,6.533,0,0,0-1.556,4.285,6.2,6.2,0,0,0,2.811,5.268Zm63.489-25.044-33.655,13.306-.6-69.085a6.337,6.337,0,0,0,.355-10.236,4.063,4.063,0,0,1,3.412-1.842l.15-5.746c-.191,0-3.78-.532-4.517-8.475h34.611c-.723,7.943-4.313,8.475-4.422,8.475l.068,5.746a4.244,4.244,0,0,1,3.835,2.539,6.67,6.67,0,0,0-1.542,4.285,6.249,6.249,0,0,0,2.8,5.268Zm63.148-24.907-33.655,13.293-.614-43.741a6.347,6.347,0,0,0,.368-10.236,4.073,4.073,0,0,1,3.412-1.856l.136-5.746c-.191,0-3.78-.942-4.5-8.885h34.61c-.723,7.943-4.313,8.885-4.422,8.885l.068,5.746a4.249,4.249,0,0,1,3.835,2.552,6.559,6.559,0,0,0-1.542,4.272,6.224,6.224,0,0,0,2.8,5.282Zm63.134,13.538-33.655-13.279-.6-31.13a6.337,6.337,0,0,0,.355-10.236,4.082,4.082,0,0,1,3.412-1.842l.15-5.746c-.191,0-3.78-.532-4.517-8.475h34.611c-.71,7.943-4.313,8.475-4.422,8.475l.082,5.746a4.277,4.277,0,0,1,3.835,2.539,6.605,6.605,0,0,0-1.556,4.285,6.228,6.228,0,0,0,2.811,5.268Zm63,24.839-33.614-13.266-.5-55.983a6.347,6.347,0,0,0,.368-10.236,4.038,4.038,0,0,1,3.4-1.842l.15-5.746c-.191,0-3.78-.532-4.5-8.475h34.61c-.723,7.943-4.313,8.475-4.422,8.475l.055,5.746a4.233,4.233,0,0,1,3.849,2.539,6.6,6.6,0,0,0-1.542,4.285,6.217,6.217,0,0,0,2.8,5.268ZM663,723.122l-32.986-13.006-.928-81.067a6.347,6.347,0,0,0,.368-10.236,4.044,4.044,0,0,1,3.412-1.842l.136-5.746c-.191,0-3.78-.532-4.5-8.475h34.6c-.723,7.943-4.313,8.475-4.408,8.475l.055,5.746a4.265,4.265,0,0,1,3.849,2.539,6.523,6.523,0,0,0-1.542,4.285,6.185,6.185,0,0,0,2.8,5.268Zm63,24.852-32.945-13.047-.819-105.879a6.347,6.347,0,0,0,.369-10.236,4.037,4.037,0,0,1,3.4-1.842l.136-5.746c-.177,0-3.767-.532-4.5-8.475h34.611c-.71,7.943-4.313,8.475-4.422,8.475l.068,5.746a4.281,4.281,0,0,1,3.849,2.539,6.462,6.462,0,0,0-1.556,4.285A6.2,6.2,0,0,0,727,629.062ZM748.33,574.513h-520l-3.794-13.921H752.069Z" fill="#377fbc"/>
</svg>
